<svg width="40" height="40" viewBox="0 0 40 40" fill="none" xmlns="http://www.w3.org/2000/svg">
<path fill-rule="evenodd" clip-rule="evenodd" d="M20 6.6665C20.9205 6.6665 21.6667 7.4127 21.6667 8.33317L21.6667 31.6665C21.6667 32.587 20.9205 33.3332 20 33.3332C19.0795 33.3332 18.3333 32.587 18.3333 31.6665L18.3333 8.33317C18.3333 7.4127 19.0795 6.6665 20 6.6665Z" fill="#EBC9FB"/>
<path fill-rule="evenodd" clip-rule="evenodd" d="M6.66666 20.0002C6.66666 19.0797 7.41285 18.3335 8.33332 18.3335H31.6667C32.5871 18.3335 33.3333 19.0797 33.3333 20.0002C33.3333 20.9206 32.5871 21.6668 31.6667 21.6668H8.33332C7.41285 21.6668 6.66666 20.9206 6.66666 20.0002Z" fill="#4135F3"/>
</svg>
